<?xml version="1.0" standalone="no"?><!DOCTYPE svg PUBLIC "-//W3C//DTD SVG 1.1//EN" "http://www.w3.org/Graphics/SVG/1.1/DTD/svg11.dtd"><svg t="1687316257878" class="icon" viewBox="0 0 1024 1024" version="1.1" xmlns="http://www.w3.org/2000/svg" p-id="1370" xmlns:xlink="http://www.w3.org/1999/xlink" width="150" height="150"><path d="M145.6 0C100.8 0 64 36.8 64 81.6v860.8C64 987.2 100.8 1024 145.6 1024h732.8c44.8 0 81.6-36.8 81.6-81.6V324.8L657.6 0h-512z" fill="#3C8CEA" p-id="1371"></path><path d="M960 326.4v16H755.2s-102.4-20.8-99.2-107.2c0 0 3.2 91.2 96 91.2h208z" fill="#2D6FE4" p-id="1372"></path><path d="M657.6 0v233.6c0 25.6 17.6 92.8 97.6 92.8H960L657.6 0z" fill="#FFFFFF" p-id="1373"></path><path d="M470.4 844.8l-51.2 12.8c-20.8 3.2-38.4 4.8-57.6 4.8-97.6 0-136-72-136-128 0-68.8 52.8-132.8 144-132.8 19.2 0 36.8 3.2 54.4 8 25.6 8 38.4 17.6 46.4 22.4l-30.4 27.2-11.2 3.2 8-14.4c-11.2-11.2-33.6-33.6-75.2-33.6-56 0-97.6 43.2-97.6 105.6 0 65.6 48 128 124.8 128 22.4 0 33.6-3.2 44.8-8v-57.6l-52.8 3.2 27.2-14.4h75.2l-9.6 8c-1.6 1.6-1.6 3.2-3.2 6.4v59.2z" fill="#FFFFFF" p-id="1374"></path></svg>