<?xml version="1.0" standalone="no"?><!DOCTYPE svg PUBLIC "-//W3C//DTD SVG 1.1//EN" "http://www.w3.org/Graphics/SVG/1.1/DTD/svg11.dtd"><svg t="1687316559845" class="icon" viewBox="0 0 1024 1024" version="1.1" xmlns="http://www.w3.org/2000/svg" p-id="4133" xmlns:xlink="http://www.w3.org/1999/xlink" width="150" height="150"><path d="M170.666667 85.333333h682.666666a85.333333 85.333333 0 0 1 85.333334 85.333334v568.746666L739.413333 938.666667H170.666667a85.333333 85.333333 0 0 1-85.333334-85.333334V170.666667a85.333333 85.333333 0 0 1 85.333334-85.333334m554.666666 640v138.666667L864 725.333333H725.333333m-298.666666 85.333334h170.666666v-42.666667h42.666667v-213.333333c51.626667-38.826667 85.333333-100.693333 85.333333-170.666667a213.333333 213.333333 0 0 0-213.333333-213.333333 213.333333 213.333333 0 0 0-213.333333 213.333333c0 69.973333 33.706667 131.84 85.333333 170.666667v213.333333h42.666667v42.666667m170.666666-85.333334h-170.666666v-42.666666h170.666666v42.666666m0-85.333333h-170.666666v-42.666667h170.666666v42.666667M512 213.333333a170.666667 170.666667 0 0 1 170.666667 170.666667c0 64-34.133333 118.186667-85.333334 147.626667V554.666667h-170.666666v-23.04C375.466667 502.186667 341.333333 448 341.333333 384a170.666667 170.666667 0 0 1 170.666667-170.666667z" fill="#1296db" p-id="4134"></path></svg>